<svg id="visual" viewBox="0 0 540 960" width="540" height="960" xmlns="http://www.w3.org/2000/svg" xmlns:xlink="http://www.w3.org/1999/xlink" version="1.1"><rect x="0" y="0" width="540" height="960" fill="#000000"></rect><path d="M0 548L15 547.8C30 547.7 60 547.3 90 545.7C120 544 150 541 180 550.5C210 560 240 582 270 588.7C300 595.3 330 586.7 360 578.3C390 570 420 562 450 573.5C480 585 510 616 525 631.5L540 647L540 961L525 961C510 961 480 961 450 961C420 961 390 961 360 961C330 961 300 961 270 961C240 961 210 961 180 961C150 961 120 961 90 961C60 961 30 961 15 961L0 961Z" fill="#fa7268"></path><path d="M0 656L15 660.8C30 665.7 60 675.3 90 684C120 692.7 150 700.3 180 699.2C210 698 240 688 270 679.8C300 671.7 330 665.3 360 655.8C390 646.3 420 633.7 450 626.5C480 619.3 510 617.7 525 616.8L540 616L540 961L525 961C510 961 480 961 450 961C420 961 390 961 360 961C330 961 300 961 270 961C240 961 210 961 180 961C150 961 120 961 90 961C60 961 30 961 15 961L0 961Z" fill="#ef5f67"></path><path d="M0 690L15 702.3C30 714.7 60 739.3 90 739.3C120 739.3 150 714.7 180 717.2C210 719.7 240 749.3 270 755.5C300 761.7 330 744.3 360 741.3C390 738.3 420 749.7 450 749.2C480 748.7 510 736.3 525 730.2L540 724L540 961L525 961C510 961 480 961 450 961C420 961 390 961 360 961C330 961 300 961 270 961C240 961 210 961 180 961C150 961 120 961 90 961C60 961 30 961 15 961L0 961Z" fill="#e34c67"></path><path d="M0 813L15 815.2C30 817.3 60 821.7 90 822C120 822.3 150 818.7 180 810.7C210 802.7 240 790.3 270 782.5C300 774.7 330 771.3 360 778.7C390 786 420 804 450 809.2C480 814.3 510 806.7 525 802.8L540 799L540 961L525 961C510 961 480 961 450 961C420 961 390 961 360 961C330 961 300 961 270 961C240 961 210 961 180 961C150 961 120 961 90 961C60 961 30 961 15 961L0 961Z" fill="#d53867"></path><path d="M0 867L15 874.2C30 881.3 60 895.7 90 893.5C120 891.3 150 872.7 180 863.3C210 854 240 854 270 854.7C300 855.3 330 856.7 360 854.3C390 852 420 846 450 849C480 852 510 864 525 870L540 876L540 961L525 961C510 961 480 961 450 961C420 961 390 961 360 961C330 961 300 961 270 961C240 961 210 961 180 961C150 961 120 961 90 961C60 961 30 961 15 961L0 961Z" fill="#c62368"></path></svg>