<svg id="visual" viewBox="0 0 960 540" width="960" height="540" xmlns="http://www.w3.org/2000/svg" xmlns:xlink="http://www.w3.org/1999/xlink" version="1.1"><rect x="0" y="0" width="960" height="540" fill="#000000"></rect><path d="M0 308L26.7 307.8C53.3 307.7 106.7 307.3 160 306.3C213.3 305.3 266.7 303.7 320 309C373.3 314.3 426.7 326.7 480 330.3C533.3 334 586.7 329 640 324.3C693.3 319.7 746.7 315.3 800 321.8C853.3 328.3 906.7 345.7 933.3 354.3L960 363L960 541L933.3 541C906.7 541 853.3 541 800 541C746.7 541 693.3 541 640 541C586.7 541 533.3 541 480 541C426.7 541 373.3 541 320 541C266.7 541 213.3 541 160 541C106.7 541 53.3 541 26.7 541L0 541Z" fill="#fa7268"></path><path d="M0 369L26.7 371.7C53.3 374.3 106.7 379.7 160 384.5C213.3 389.3 266.7 393.7 320 393C373.3 392.3 426.7 386.7 480 382C533.3 377.3 586.7 373.7 640 368.3C693.3 363 746.7 356 800 352C853.3 348 906.7 347 933.3 346.5L960 346L960 541L933.3 541C906.7 541 853.3 541 800 541C746.7 541 693.3 541 640 541C586.7 541 533.3 541 480 541C426.7 541 373.3 541 320 541C266.7 541 213.3 541 160 541C106.7 541 53.3 541 26.7 541L0 541Z" fill="#ef5f67"></path><path d="M0 387L26.7 394C53.3 401 106.7 415 160 415C213.3 415 266.7 401 320 402.5C373.3 404 426.7 421 480 424.5C533.3 428 586.7 418 640 416.3C693.3 414.7 746.7 421.3 800 421.2C853.3 421 906.7 414 933.3 410.5L960 407L960 541L933.3 541C906.7 541 853.3 541 800 541C746.7 541 693.3 541 640 541C586.7 541 533.3 541 480 541C426.7 541 373.3 541 320 541C266.7 541 213.3 541 160 541C106.7 541 53.3 541 26.7 541L0 541Z" fill="#e34c67"></path><path d="M0 457L26.7 458.2C53.3 459.3 106.7 461.7 160 461.8C213.3 462 266.7 460 320 455.5C373.3 451 426.7 444 480 439.5C533.3 435 586.7 433 640 437.2C693.3 441.3 746.7 451.7 800 454.7C853.3 457.7 906.7 453.3 933.3 451.2L960 449L960 541L933.3 541C906.7 541 853.3 541 800 541C746.7 541 693.3 541 640 541C586.7 541 533.3 541 480 541C426.7 541 373.3 541 320 541C266.7 541 213.3 541 160 541C106.7 541 53.3 541 26.7 541L0 541Z" fill="#d53867"></path><path d="M0 488L26.7 492C53.3 496 106.7 504 160 502.7C213.3 501.3 266.7 490.7 320 485.3C373.3 480 426.7 480 480 480.3C533.3 480.7 586.7 481.3 640 480C693.3 478.7 746.7 475.3 800 477C853.3 478.7 906.7 485.3 933.3 488.7L960 492L960 541L933.3 541C906.7 541 853.3 541 800 541C746.7 541 693.3 541 640 541C586.7 541 533.3 541 480 541C426.7 541 373.3 541 320 541C266.7 541 213.3 541 160 541C106.7 541 53.3 541 26.7 541L0 541Z" fill="#c62368"></path></svg>