<svg id="visual" viewBox="0 0 900 600" width="900" height="600" xmlns="http://www.w3.org/2000/svg" xmlns:xlink="http://www.w3.org/1999/xlink" version="1.1"><rect x="0" y="0" width="900" height="600" fill="#000000"></rect><defs><linearGradient id="grad1_0" x1="33.3%" y1="0%" x2="100%" y2="100%"><stop offset="20%" stop-color="#000000" stop-opacity="1"></stop><stop offset="80%" stop-color="#000000" stop-opacity="1"></stop></linearGradient></defs><defs><linearGradient id="grad2_0" x1="0%" y1="0%" x2="66.7%" y2="100%"><stop offset="20%" stop-color="#000000" stop-opacity="1"></stop><stop offset="80%" stop-color="#000000" stop-opacity="1"></stop></linearGradient></defs><g transform="translate(900, 0)"><path d="M0 486.7C-65.3 479.3 -130.6 471.8 -184.1 444.4C-237.5 416.9 -279.1 369.5 -325.3 325.3C-371.4 281 -422 240 -449.7 186.3C-477.4 132.6 -482.1 66.3 -486.7 0L0 0Z" fill="#ae0000"></path></g><g transform="translate(0, 600)"><path d="M0 -486.7C64.2 -468 128.4 -449.3 170.7 -412.1C213 -374.8 233.4 -319 282.8 -282.8C332.3 -246.7 410.9 -230.1 449.7 -186.3C488.5 -142.4 487.6 -71.2 486.7 0L0 0Z" fill="#ae0000"></path></g></svg>